<svg id="splitsvg" version="1.1" xmlns="http://www.w3.org/2000/svg" xmlns:xlink="http://www.w3.org/1999/xlink" width="1380" height="281"><g id="svgg"><path id="path0" d="M15.866 137.787 L 15.866 263.048 111.900 263.048 L 207.933 263.048 207.933 137.787 L 207.933 12.526 111.900 12.526 L 15.866 12.526 15.866 137.787 M101.879 80.167 L 101.879 119.415 72.651 119.415 L 43.424 119.415 43.424 80.167 L 43.424 40.919 72.651 40.919 L 101.879 40.919 101.879 80.167 M187.891 80.585 L 187.891 120.251 158.246 120.251 L 128.601 120.251 128.601 80.585 L 128.601 40.919 158.246 40.919 L 187.891 40.919 187.891 80.585 M220.459 194.990 L 220.459 263.048 303.967 263.048 L 387.474 263.048 387.474 194.990 L 387.474 126.931 303.967 126.931 L 220.459 126.931 220.459 194.990 M285.595 177.035 L 285.595 201.253 261.378 201.253 L 237.161 201.253 237.161 177.035 L 237.161 152.818 261.378 152.818 L 285.595 152.818 285.595 177.035 M365.762 177.035 L 365.762 201.253 341.545 201.253 L 317.328 201.253 317.328 177.035 L 317.328 152.818 341.545 152.818 L 365.762 152.818 365.762 177.035 M141.962 220.042 L 141.962 259.708 112.317 259.708 L 82.672 259.708 82.672 220.042 L 82.672 180.376 112.317 180.376 L 141.962 180.376 141.962 220.042  M -25 0 L -5 0 L -5 20 L -25 20 Z M 405 0 L 425 0 L 425 20 L 405 20 Z" stroke="none" fill="#000000" fill-rule="evenodd" transform="translate(30,0)"></path></g></svg>